<svg width="48" height="48" viewBox="0 0 48 48" fill="none" xmlns="http://www.w3.org/2000/svg">
<path fill-rule="evenodd" clip-rule="evenodd" d="M0.000511169 23.895C0.000511169 36.9207 10.7256 47.4832 23.9606 47.4832C37.193 47.4832 47.9206 36.9207 47.9206 23.895C47.9206 10.8693 37.193 0.309326 23.9606 0.309326C10.7256 0.309326 0.000511169 10.8693 0.000511169 23.895ZM16.017 43.8001C7.94049 40.6852 2.21738 32.9496 2.21738 23.8953C2.21738 12.0873 11.939 2.52011 23.9318 2.52011C35.9247 2.52011 45.6463 12.0873 45.6463 23.8953C45.6463 35.7007 35.9247 45.2704 23.9318 45.2704C21.6913 45.2704 19.533 44.9369 17.503 44.3155C18.3858 42.8957 19.7101 40.5689 20.2003 38.7121C20.4646 37.7117 21.5528 33.6317 21.5528 33.6317C22.2611 34.9605 24.3296 36.0873 26.5316 36.0873C33.0785 36.0873 37.7982 30.158 37.7982 22.7913C37.7982 15.7302 31.9442 10.4452 24.4117 10.4452C15.0418 10.4452 10.0655 16.6397 10.0655 23.3824C10.0655 26.5151 11.7593 30.4207 14.4695 31.6637C14.8826 31.8506 15.1034 31.7673 15.1983 31.3757C15.2274 31.256 15.3049 30.9466 15.3977 30.576C15.5341 30.0313 15.7037 29.3544 15.8014 28.9529C15.8527 28.7357 15.8271 28.5513 15.65 28.3391C14.7518 27.2679 14.0357 25.2974 14.0357 23.4607C14.0357 18.7466 17.6621 14.1841 23.8394 14.1841C29.175 14.1841 32.9091 17.7614 32.9091 22.8797C32.9091 28.6624 29.9424 32.6692 26.0825 32.6692C23.9524 32.6692 22.356 30.9361 22.8668 28.8064C23.0884 27.8882 23.3847 26.944 23.6728 26.0259C24.1821 24.4028 24.6658 22.8613 24.6658 21.6898C24.6658 20.0477 23.7701 18.6784 21.9198 18.6784C19.7383 18.6784 17.9906 20.8965 17.9906 23.87C17.9906 25.7622 18.6399 27.0431 18.6399 27.0431C18.6399 27.0431 16.4867 35.9988 16.094 37.6662C15.6577 39.5155 15.8271 42.11 16.017 43.8001Z" fill="#FBFEFF" fill-opacity="0.8"/>
</svg>
